<?xml version="1.0" encoding="UTF-8"?>
<svg width="127px" height="20px" viewBox="0 0 127 20" version="1.1" xmlns="http://www.w3.org/2000/svg" xmlns:xlink="http://www.w3.org/1999/xlink">
    <title>Group</title>
    <g id="jonasdehovre" stroke="none" stroke-width="1" fill="none" fill-rule="evenodd">
        <g id="Group" transform="translate(0.460000, 0.760000)" fill="#000000" fill-rule="nonzero">
            <path d="M4.56,2.56 L4.56,0 L1.74,0 L1.74,2.56 L4.56,2.56 Z M1.84,18.32 C2.81333344,18.32 3.51,18.0933334 3.93,17.64 C4.35,17.1866666 4.56,16.44 4.56,15.4 L4.56,3.92 L1.74,3.92 L1.74,15.02 C1.74,15.3266666 1.66666656,15.54 1.52,15.66 C1.37333344,15.78 1.10666656,15.84 0.72,15.84 L7.10542736e-15,15.84 L7.10542736e-15,18.32 L1.84,18.32 Z M11.075,14.58 C12.635,14.58 13.9016666,14.06 14.875,13.02 C15.8616666,11.9933334 16.355,10.6933334 16.355,9.12 C16.355,7.56 15.8616666,6.25333344 14.875,5.2 C13.8883334,4.17333344 12.6216666,3.66 11.075,3.66 C9.52833344,3.66 8.26166656,4.17333344 7.275,5.2 C6.28833344,6.25333344 5.795,7.56 5.795,9.12 C5.795,10.6933334 6.28833344,11.9933334 7.275,13.02 C8.24833344,14.06 9.515,14.58 11.075,14.58 Z M11.075,12.38 C10.3016666,12.38 9.68166656,12.0866666 9.215,11.5 C8.74833344,10.9133334 8.515,10.12 8.515,9.12 C8.515,8.12 8.74833344,7.32666656 9.215,6.74 C9.68166656,6.15333344 10.3016666,5.86 11.075,5.86 C11.8616666,5.86 12.4883334,6.15333344 12.955,6.74 C13.4083334,7.31333344 13.635,8.10666656 13.635,9.12 C13.635,10.1333334 13.4083334,10.9266666 12.955,11.5 C12.4883334,12.0866666 11.8616666,12.38 11.075,12.38 Z M20.37,14.24 L20.37,8.72 C20.37,7.96 20.5566666,7.35 20.93,6.89 C21.3033334,6.43 21.79,6.2 22.39,6.2 C22.87,6.2 23.24,6.35333344 23.5,6.66 C23.76,6.96666656 23.89,7.4 23.89,7.96 L23.89,14.24 L26.71,14.24 L26.71,7.32 C26.71,6.18666656 26.4133334,5.29333344 25.82,4.64 C25.2266666,3.98666656 24.3966666,3.66 23.33,3.66 C22.01,3.66 21.0166666,4.21333344 20.35,5.32 L20.31,3.92 L17.55,3.92 L17.55,14.24 L20.37,14.24 Z M31.365,14.54 C32.7516666,14.54 33.8116666,14.0933334 34.545,13.2 C34.545,13.2266666 34.6183334,13.5733334 34.765,14.24 L37.625,14.24 C37.3583334,13.7733334 37.225,13.0533334 37.225,12.08 L37.225,7.52 C37.225,4.96 35.7383334,3.68 32.765,3.68 C30.005,3.68 28.5383334,4.78666656 28.365,7 L30.945,7.04 C31.0116666,6.56 31.1916666,6.21333344 31.485,6 C31.7783334,5.78666656 32.2116666,5.68 32.785,5.68 C33.945,5.68 34.525,6.05333344 34.525,6.8 L34.525,7.56 L30.925,8.28 C28.8316666,8.69333344 27.785,9.73333344 27.785,11.4 C27.785,12.3466666 28.1116666,13.1066666 28.765,13.68 C29.4183334,14.2533334 30.285,14.54 31.365,14.54 Z M32.165,12.46 C31.6583334,12.46 31.2616666,12.3466666 30.975,12.12 C30.6883334,11.8933334 30.545,11.5933334 30.545,11.22 C30.545,10.5266666 30.9916666,10.0933334 31.885,9.92 L34.525,9.36 L34.525,10.12 C34.525,10.84 34.3083334,11.41 33.875,11.83 C33.4416666,12.25 32.8716666,12.46 32.165,12.46 Z M43.32,14.62 C44.7333334,14.62 45.8466666,14.3133334 46.66,13.7 C47.4866666,13.1 47.9,12.26 47.9,11.18 C47.9,10.38 47.6533334,9.74 47.16,9.26 C46.6666666,8.78 45.9066666,8.43333344 44.88,8.22 L42.66,7.76 C41.8866666,7.58666656 41.5,7.24 41.5,6.72 C41.5,6.38666656 41.64,6.12 41.92,5.92 C42.2,5.72 42.5733334,5.62 43.04,5.62 C43.5733334,5.62 44.0166666,5.74666656 44.37,6 C44.7233334,6.25333344 44.9333334,6.60666656 45,7.06 L47.54,6.96 C47.4066666,5.94666656 46.94,5.14333344 46.14,4.55 C45.34,3.95666656 44.32,3.66 43.08,3.66 C41.8,3.66 40.78,3.96666656 40.02,4.58 C39.26,5.19333344 38.88,6.02 38.88,7.06 C38.88,8.67333344 39.88,9.68 41.88,10.08 L43.92,10.48 C44.8266666,10.6666666 45.28,11.0133334 45.28,11.52 C45.28,11.88 45.1133334,12.16 44.78,12.36 C44.4466666,12.56 43.9933334,12.66 43.42,12.66 C42.14,12.66 41.4066666,12.1266666 41.22,11.06 L38.64,11.16 C38.7866666,12.2666666 39.2533334,13.12 40.04,13.72 C40.8133334,14.32 41.9066666,14.62 43.32,14.62 Z M53.475,14.46 C54.195,14.46 54.8483334,14.2933334 55.435,13.96 C56.0216666,13.6266666 56.475,13.1733334 56.795,12.6 L56.795,14.24 L58.395,14.24 L58.395,0 L56.555,0 L56.555,5.16 C55.835,4.18666656 54.795,3.7 53.435,3.7 C52.115,3.7 51.0416666,4.18 50.215,5.14 C49.3883334,6.11333344 48.975,7.37333344 48.975,8.92 C48.975,10.56 49.3816666,11.8866666 50.195,12.9 C51.0083334,13.94 52.1016666,14.46 53.475,14.46 Z M53.655,12.88 C52.775,12.88 52.0816666,12.52 51.575,11.8 C51.0683334,11.0933334 50.815,10.1333334 50.815,8.92 C50.815,7.76 51.065,6.86333344 51.565,6.23 C52.065,5.59666656 52.775,5.28 53.695,5.28 C54.6016666,5.28 55.3216666,5.6 55.855,6.24 C56.3883334,6.88 56.655,7.78666656 56.655,8.96 C56.655,10.16 56.375,11.1133334 55.815,11.82 C55.255,12.5266666 54.535,12.88 53.655,12.88 Z M65.27,14.48 C66.4033334,14.48 67.3733334,14.1866666 68.18,13.6 C68.9866666,13.0133334 69.55,12.1866666 69.87,11.12 L68.19,10.92 C67.71,12.2933334 66.7566666,12.98 65.33,12.98 C64.37,12.98 63.6166666,12.6833334 63.07,12.09 C62.5233334,11.4966666 62.2366666,10.64 62.21,9.52 L69.95,9.52 L69.95,8.84 C69.95,7.24 69.5266666,5.98 68.68,5.06 C67.8333334,4.14 66.6833334,3.68 65.23,3.68 C63.71,3.68 62.5233334,4.16666656 61.67,5.14 C60.8033334,6.12666656 60.37,7.42666656 60.37,9.04 C60.37,10.6533334 60.81,11.96 61.69,12.96 C62.5433334,13.9733334 63.7366666,14.48 65.27,14.48 Z M68.23,8.2 L62.23,8.2 C62.3366666,7.21333344 62.6566666,6.46 63.19,5.94 C63.7366666,5.43333344 64.4233334,5.18 65.25,5.18 C66.09,5.18 66.77,5.44 67.29,5.96 C67.7966666,6.49333344 68.11,7.24 68.23,8.2 Z M73.765,14.24 L73.765,8.5 C73.765,7.42 74.0383334,6.61 74.585,6.07 C75.1316666,5.53 75.8383334,5.26 76.705,5.26 C78.0783334,5.26 78.765,5.98666656 78.765,7.44 L78.765,14.24 L80.605,14.24 L80.605,7.08 C80.605,6 80.295,5.16 79.675,4.56 C79.055,3.96 78.1983334,3.66 77.105,3.66 C75.625,3.66 74.5116666,4.18 73.765,5.22 L73.765,0 L71.925,0 L71.925,14.24 L73.765,14.24 Z M87.54,14.5 C88.98,14.5 90.1733334,13.9866666 91.12,12.96 C92.0533334,11.9466666 92.52,10.6266666 92.52,9 C92.52,7.38666656 92.0666666,6.08666656 91.16,5.1 C90.24,4.14 89.0533334,3.66 87.6,3.66 C86.1066666,3.66 84.9,4.15333344 83.98,5.14 C83.0466666,6.11333344 82.58,7.42666656 82.58,9.08 C82.58,10.6933334 83.04,12 83.96,13 C84.8533334,14 86.0466666,14.5 87.54,14.5 Z M87.54,12.96 C86.58,12.96 85.82,12.6066666 85.26,11.9 C84.7,11.1933334 84.42,10.2533334 84.42,9.08 C84.42,7.88 84.6966666,6.93333344 85.25,6.24 C85.8033334,5.54666656 86.5666666,5.2 87.54,5.2 C88.5266666,5.2 89.2966666,5.54 89.85,6.22 C90.4033334,6.9 90.68,7.82666656 90.68,9 C90.68,10.2 90.4,11.16 89.84,11.88 C89.28,12.6 88.5133334,12.96 87.54,12.96 Z M98.775,14.24 L102.555,3.92 L100.695,3.92 L98.735,9.88 L97.895,12.66 L97.035,9.88 L94.975,3.92 L92.995,3.92 L96.955,14.24 L98.775,14.24 Z M105.87,14.24 L105.87,8.6 C105.91,7.61333344 106.23,6.84 106.83,6.28 C107.416667,5.72 108.083333,5.44 108.83,5.44 C109.176667,5.44 109.396667,5.44666656 109.49,5.46 L109.49,3.66 C109.436667,3.64666656 109.31,3.64 109.11,3.64 C107.59,3.64 106.47,4.42666656 105.75,6 L105.75,3.92 L104.03,3.92 L104.03,14.24 L105.87,14.24 Z M115.065,14.48 C116.198333,14.48 117.168333,14.1866666 117.975,13.6 C118.781667,13.0133334 119.345,12.1866666 119.665,11.12 L117.985,10.92 C117.505,12.2933334 116.551667,12.98 115.125,12.98 C114.165,12.98 113.411667,12.6833334 112.865,12.09 C112.318333,11.4966666 112.031667,10.64 112.005,9.52 L119.745,9.52 L119.745,8.84 C119.745,7.24 119.321667,5.98 118.475,5.06 C117.628333,4.14 116.478333,3.68 115.025,3.68 C113.505,3.68 112.318333,4.16666656 111.465,5.14 C110.598333,6.12666656 110.165,7.42666656 110.165,9.04 C110.165,10.6533334 110.605,11.96 111.485,12.96 C112.338333,13.9733334 113.531667,14.48 115.065,14.48 Z M118.025,8.2 L112.025,8.2 C112.131667,7.21333344 112.451667,6.46 112.985,5.94 C113.531667,5.43333344 114.218333,5.18 115.045,5.18 C115.885,5.18 116.565,5.44 117.085,5.96 C117.591667,6.49333344 117.905,7.24 118.025,8.2 Z" id="jonasdehovre"></path>
            <path d="M123.487266,7.45289063 C123.747682,7.45289063 123.990195,7.4056901 124.214805,7.31128906 C124.439414,7.21688802 124.633099,7.0915625 124.795859,6.9353125 C124.952109,6.77255208 125.077435,6.57561198 125.171836,6.34449219 C125.266237,6.1133724 125.313438,5.85132813 125.313438,5.55835938 C125.313438,5.26539063 125.266237,5.00660156 125.171836,4.78199219 C125.077435,4.55738281 124.952109,4.36369792 124.795859,4.2009375 C124.437786,3.85588542 124.011354,3.68335938 123.516563,3.68335938 C123.269167,3.68335938 123.033164,3.72730469 122.808555,3.81519531 C122.583945,3.90308594 122.38375,4.03166667 122.207969,4.2009375 C122.058229,4.3571875 121.934531,4.5508724 121.836875,4.78199219 C121.739219,5.01311198 121.690391,5.27515625 121.690391,5.568125 C121.690391,5.82203125 121.731081,6.06617188 121.812461,6.30054688 C121.893841,6.53492188 122.028932,6.74651042 122.217734,6.9353125 C122.367474,7.08505208 122.549766,7.20875 122.764609,7.30640625 C122.979453,7.4040625 123.220339,7.45289063 123.487266,7.45289063 Z M121.778281,18.9567969 L121.915,18.9079688 C123.138958,18.4457292 124.053672,17.7946875 124.659141,16.9548438 C124.971641,16.5316667 125.210898,16.0596615 125.376914,15.5388281 C125.54293,15.0179948 125.625938,14.4515885 125.625938,13.8396094 C125.625938,13.631276 125.616172,13.4327083 125.596641,13.2439063 C125.577109,13.0551042 125.544557,12.8760677 125.498984,12.7067969 C125.459922,12.537526 125.409466,12.3829036 125.347617,12.2429297 C125.285768,12.1029557 125.209271,11.9646094 125.118125,11.8278906 C124.955365,11.5739844 124.743776,11.3851823 124.483359,11.2614844 C124.353151,11.1898698 124.216432,11.1394141 124.073203,11.1101172 C123.929974,11.0808203 123.78349,11.0661719 123.63375,11.0661719 C123.497031,11.0661719 123.370078,11.0759375 123.252891,11.0954688 C123.135703,11.115 123.031536,11.1410417 122.940391,11.1735938 C122.829714,11.2191667 122.727174,11.2696224 122.632773,11.3249609 C122.538372,11.3802995 122.445599,11.4470313 122.354453,11.5251563 C122.002891,11.8311458 121.827109,12.2478125 121.827109,12.7751563 C121.827109,13.0355729 121.867799,13.2715755 121.94918,13.4831641 C122.03056,13.6947526 122.155885,13.8754167 122.325156,14.0251563 C122.487917,14.1748958 122.681602,14.2855729 122.906211,14.3571875 C123.13082,14.4288021 123.357057,14.4646094 123.584922,14.4646094 L123.584922,14.4646094 L123.682578,14.4646094 C123.702109,14.4646094 123.744427,14.458099 123.809531,14.4450781 C123.78349,14.803151 123.70862,15.1368099 123.584922,15.4460547 C123.461224,15.7552995 123.304974,16.0271094 123.116172,16.2614844 C122.907839,16.521901 122.647422,16.7644141 122.334922,16.9890234 C122.022422,17.2136328 121.687135,17.4008073 121.329063,17.5505469 L121.329063,17.5505469 L121.182578,17.6189063 L121.778281,18.9567969 Z" id=";"></path>
        </g>
    </g>
</svg>